Michael Jackson's This Is It.2009.TS.AAC.H264-LTT.mp4
*****************************************************

> TiTLE......[ This Is It
> YEAR.......[ 2009
> GENRE......[ Documentary | Music
> RUNTiME....[ 1:44:00
> iMDB RATE..[ User Rating: 7.6/10 (4,047 votes)
> iMDB URL...[ http://www.imdb.com/title/tt1477715/

> AUDiO......[ MPEG-4 AAC LC VBR 128 kbit/s 48000Hz 2 chnls
> LANGUAGE...[ ENGLISH
> SUBS.......[ Hardcoded Spanish
> ViDEO......[ 1421 kbps H.264/MPEG-4 AVC 25.000 Fps
> RESOLUTiON.[ 704 x 352
> DAR........[ 2.000 (2:1)
> SiZE.......[ 1.12 GB (1,152 MB / 1,180,609 KB)
> SOURCE.....[ Camera SPA
************************************************

Video:
Duration                         : 1h 44mn
Bit rate mode                    : Variable
Bit rate                         : 1 418 Kbps
Maximum bit rate                 : 5 476 Kbps
Width                            : 704 pixels
Height                           : 352 pixels
Display aspect ratio             : 2.000
Frame rate mode                  : Constant
Frame rate                       : 25.000 fps
Resolution                       : 24 bits
Colorimetry                      : 4:2:0
Bits/(Pixel*Frame)               : 0.229
Stream size                      : 1.03 GiB (91%)

Audio:
Duration                         : 1h 43mn
Bit rate mode                    : Variable
Bit rate                         : 128 Kbps
Maximum bit rate                 : 213 Kbps
Channel(s)                       : 2 channels
Channel positions                : L R
Sampling rate                    : 48.0 KHz
Resolution                       : 16 bits
Stream size                      : 95.2 MiB (8%)
Encoded date                     : UTC 2009-11-01 19:35:57
**********************************************************

included the sample.

Enjoy.
LTT
